<svg id="noun_back_3001789" xmlns="http://www.w3.org/2000/svg" width="18.354" height="18.354" viewBox="0 0 18.354 18.354">
  <rect id="Rectangle_2238" data-name="Rectangle 2238" width="18.354" height="18.354" fill="none"/>
  <g id="Group_906" data-name="Group 906" transform="translate(2.294 4.482)">
    <g id="Group_905" data-name="Group 905">
      <path id="Path_4846" data-name="Path 4846" d="M14.046,4.347a.574.574,0,1,0,0-1.147H1.427a.574.574,0,0,0,0,1.147Z" transform="translate(-0.853 0.921)" fill="#1a1a1a"/>
      <path id="Path_4847" data-name="Path 4847" d="M5.143,10.889a.574.574,0,0,0,.811-.811L2.238,6.362,5.954,2.646a.574.574,0,0,0-.811-.811L1.025,5.953l0,0a.574.574,0,0,0,0,.811h0l4.121,4.121h0Z" transform="translate(-0.853 -1.667)" fill="#1a1a1a"/>
    </g>
  </g>
</svg>
