<svg xmlns="http://www.w3.org/2000/svg" width="35.556" height="32.091" viewBox="0 0 35.556 32.091">
  <path id="noun_credit_cards_942014" data-name="noun_credit cards_942014" d="M1.932,9.665,27.89,3.778l-.36-1.587a.843.843,0,0,0-1-.635L2.2,7.036a.841.841,0,0,0-.636,1c.124.54.244,1.087.368,1.627h0ZM1.716,5.6,26.351.053A2.186,2.186,0,0,1,28.961,1.7l2.582,11.41H30L28.829,7.947,2.871,13.834,4.478,20.92l.144.628a.469.469,0,0,0,.564.356l.192-.044V23.37l-.028.008a1.824,1.824,0,0,1-2.17-1.371L.057,8.211A2.18,2.18,0,0,1,1.716,5.6h0Zm6.395,7.929a2.188,2.188,0,0,0-2.182,2.186v14.2a2.185,2.185,0,0,0,2.182,2.182H33.37a2.191,2.191,0,0,0,2.186-2.182v-14.2a2.192,2.192,0,0,0-2.186-2.186H8.111Zm24.727,6.355v-2.89a.333.333,0,0,0-.336-.336H26.04a.338.338,0,0,0-.336.336v2.89a.338.338,0,0,0,.336.336H32.5a.338.338,0,0,0,.336-.336Zm-4.764,8.761a.339.339,0,0,1-.34-.336v-.671a.339.339,0,0,1,.34-.336H32.5a.338.338,0,0,1,.336.336v.671a.338.338,0,0,1-.336.336H28.074Zm-6.175,0a.338.338,0,0,1-.336-.336v-.667A.335.335,0,0,1,21.9,27.3h4.428a.338.338,0,0,1,.336.336v.667a.338.338,0,0,1-.336.336Zm-6.171,0a.338.338,0,0,1-.336-.336v-.667a.335.335,0,0,1,.336-.336h4.428a.338.338,0,0,1,.336.336v.667a.338.338,0,0,1-.336.336Zm-6.171,0a.338.338,0,0,1-.336-.336v-.667a.335.335,0,0,1,.336-.336h4.428a.338.338,0,0,1,.336.336v.667a.338.338,0,0,1-.336.336Z" fill="#2bbe00" fill-rule="evenodd"/>
</svg>
