<svg xmlns="http://www.w3.org/2000/svg" width="32.424" height="30.985" viewBox="0 0 32.424 30.985">
  <path id="noun_Money_Transfer_401330" data-name="noun_Money Transfer_401330" d="M39.717,11.98H13.136A2.926,2.926,0,0,0,10.215,14.9V31.369a2.925,2.925,0,0,0,2.922,2.921h26.58a2.925,2.925,0,0,0,2.922-2.921V14.9A2.925,2.925,0,0,0,39.717,11.98ZM16.373,31.717H13.049V30.494h3.323Zm0-15.939H13.049V14.555h3.325ZM26.427,31.687a8.552,8.552,0,1,1,8.552-8.552A8.562,8.562,0,0,1,26.427,31.687Zm10.053.03V30.494H39.8v1.222ZM39.8,15.777H36.48V14.554H39.8v1.222ZM26.58,19.666a1.117,1.117,0,0,1,.906.406,1.875,1.875,0,0,1,.338,1.226H29.8a3.31,3.31,0,0,0-.685-2.167,2.85,2.85,0,0,0-1.891-1.009V16.64H26.13V18.1a3.12,3.12,0,0,0-1.961.86,2.565,2.565,0,0,0-.739,1.892,2.88,2.88,0,0,0,.214,1.154,2.572,2.572,0,0,0,.6.844,4.162,4.162,0,0,0,.925.636,12.642,12.642,0,0,0,1.284.557,2.819,2.819,0,0,1,1.055.611,1.252,1.252,0,0,1,.311.892,1.106,1.106,0,0,1-.348.857,1.357,1.357,0,0,1-.949.317,1.407,1.407,0,0,1-1.11-.434,1.811,1.811,0,0,1-.385-1.247H23.054a3.2,3.2,0,0,0,.769,2.243,3.292,3.292,0,0,0,2.168.993V29.63h1.085V28.271a3.181,3.181,0,0,0,2-.854,2.554,2.554,0,0,0,.723-1.885,2.84,2.84,0,0,0-.193-1.09,2.6,2.6,0,0,0-.552-.833,3.832,3.832,0,0,0-.89-.654,12.263,12.263,0,0,0-1.342-.619,3.314,3.314,0,0,1-1.116-.641,1.159,1.159,0,0,1-.3-.834,1.2,1.2,0,0,1,.308-.877A1.163,1.163,0,0,1,26.58,19.666ZM20.8,40.636h2.037V36.242H20.8Zm9.226,0h2.037V36.242H30.022Zm-4.613,2.33h2.037V36.242H25.409Z" transform="translate(-10.215 -11.98)" fill="#1a1a1a" opacity="0.3"/>
</svg>
