<svg xmlns="http://www.w3.org/2000/svg" xmlns:xlink="http://www.w3.org/1999/xlink" width="487" height="4" viewBox="0 0 487 4">
  <defs>
    <clipPath id="clip-path">
      <rect width="487" height="4" fill="none"/>
    </clipPath>
  </defs>
  <g id="Repeat" clip-path="url(#clip-path)">
    <g transform="translate(-435 -375)">
      <circle id="Ellipse_619" data-name="Ellipse 619" cx="2" cy="2" r="2" transform="translate(435 375)" fill="#fff"/>
    </g>
    <g transform="translate(-428 -375)">
      <circle id="Ellipse_619-2" data-name="Ellipse 619" cx="2" cy="2" r="2" transform="translate(435 375)" fill="#fff"/>
    </g>
    <g transform="translate(-421 -375)">
      <circle id="Ellipse_619-3" data-name="Ellipse 619" cx="2" cy="2" r="2" transform="translate(435 375)" fill="#fff"/>
    </g>
    <g transform="translate(-414 -375)">
      <circle id="Ellipse_619-4" data-name="Ellipse 619" cx="2" cy="2" r="2" transform="translate(435 375)" fill="#fff"/>
    </g>
    <g transform="translate(-407 -375)">
      <circle id="Ellipse_619-5" data-name="Ellipse 619" cx="2" cy="2" r="2" transform="translate(435 375)" fill="#fff"/>
    </g>
    <g transform="translate(-400 -375)">
      <circle id="Ellipse_619-6" data-name="Ellipse 619" cx="2" cy="2" r="2" transform="translate(435 375)" fill="#fff"/>
    </g>
    <g transform="translate(-393 -375)">
      <circle id="Ellipse_619-7" data-name="Ellipse 619" cx="2" cy="2" r="2" transform="translate(435 375)" fill="#fff"/>
    </g>
    <g transform="translate(-386 -375)">
      <circle id="Ellipse_619-8" data-name="Ellipse 619" cx="2" cy="2" r="2" transform="translate(435 375)" fill="#fff"/>
    </g>
    <g transform="translate(-379 -375)">
      <circle id="Ellipse_619-9" data-name="Ellipse 619" cx="2" cy="2" r="2" transform="translate(435 375)" fill="#fff"/>
    </g>
    <g transform="translate(-372 -375)">
      <circle id="Ellipse_619-10" data-name="Ellipse 619" cx="2" cy="2" r="2" transform="translate(435 375)" fill="#fff"/>
    </g>
    <g transform="translate(-365 -375)">
      <circle id="Ellipse_619-11" data-name="Ellipse 619" cx="2" cy="2" r="2" transform="translate(435 375)" fill="#fff"/>
    </g>
    <g transform="translate(-358 -375)">
      <circle id="Ellipse_619-12" data-name="Ellipse 619" cx="2" cy="2" r="2" transform="translate(435 375)" fill="#fff"/>
    </g>
    <g transform="translate(-351 -375)">
      <circle id="Ellipse_619-13" data-name="Ellipse 619" cx="2" cy="2" r="2" transform="translate(435 375)" fill="#fff"/>
    </g>
    <g transform="translate(-344 -375)">
      <circle id="Ellipse_619-14" data-name="Ellipse 619" cx="2" cy="2" r="2" transform="translate(435 375)" fill="#fff"/>
    </g>
    <g transform="translate(-337 -375)">
      <circle id="Ellipse_619-15" data-name="Ellipse 619" cx="2" cy="2" r="2" transform="translate(435 375)" fill="#fff"/>
    </g>
    <g transform="translate(-330 -375)">
      <circle id="Ellipse_619-16" data-name="Ellipse 619" cx="2" cy="2" r="2" transform="translate(435 375)" fill="#fff"/>
    </g>
    <g transform="translate(-323 -375)">
      <circle id="Ellipse_619-17" data-name="Ellipse 619" cx="2" cy="2" r="2" transform="translate(435 375)" fill="#fff"/>
    </g>
    <g transform="translate(-316 -375)">
      <circle id="Ellipse_619-18" data-name="Ellipse 619" cx="2" cy="2" r="2" transform="translate(435 375)" fill="#fff"/>
    </g>
    <g transform="translate(-309 -375)">
      <circle id="Ellipse_619-19" data-name="Ellipse 619" cx="2" cy="2" r="2" transform="translate(435 375)" fill="#fff"/>
    </g>
    <g transform="translate(-302 -375)">
      <circle id="Ellipse_619-20" data-name="Ellipse 619" cx="2" cy="2" r="2" transform="translate(435 375)" fill="#fff"/>
    </g>
    <g transform="translate(-295 -375)">
      <circle id="Ellipse_619-21" data-name="Ellipse 619" cx="2" cy="2" r="2" transform="translate(435 375)" fill="#fff"/>
    </g>
    <g transform="translate(-288 -375)">
      <circle id="Ellipse_619-22" data-name="Ellipse 619" cx="2" cy="2" r="2" transform="translate(435 375)" fill="#fff"/>
    </g>
    <g transform="translate(-281 -375)">
      <circle id="Ellipse_619-23" data-name="Ellipse 619" cx="2" cy="2" r="2" transform="translate(435 375)" fill="#fff"/>
    </g>
    <g transform="translate(-274 -375)">
      <circle id="Ellipse_619-24" data-name="Ellipse 619" cx="2" cy="2" r="2" transform="translate(435 375)" fill="#fff"/>
    </g>
    <g transform="translate(-267 -375)">
      <circle id="Ellipse_619-25" data-name="Ellipse 619" cx="2" cy="2" r="2" transform="translate(435 375)" fill="#fff"/>
    </g>
    <g transform="translate(-260 -375)">
      <circle id="Ellipse_619-26" data-name="Ellipse 619" cx="2" cy="2" r="2" transform="translate(435 375)" fill="#fff"/>
    </g>
    <g transform="translate(-253 -375)">
      <circle id="Ellipse_619-27" data-name="Ellipse 619" cx="2" cy="2" r="2" transform="translate(435 375)" fill="#fff"/>
    </g>
    <g transform="translate(-246 -375)">
      <circle id="Ellipse_619-28" data-name="Ellipse 619" cx="2" cy="2" r="2" transform="translate(435 375)" fill="#fff"/>
    </g>
    <g transform="translate(-239 -375)">
      <circle id="Ellipse_619-29" data-name="Ellipse 619" cx="2" cy="2" r="2" transform="translate(435 375)" fill="#fff"/>
    </g>
    <g transform="translate(-232 -375)">
      <circle id="Ellipse_619-30" data-name="Ellipse 619" cx="2" cy="2" r="2" transform="translate(435 375)" fill="#fff"/>
    </g>
    <g transform="translate(-225 -375)">
      <circle id="Ellipse_619-31" data-name="Ellipse 619" cx="2" cy="2" r="2" transform="translate(435 375)" fill="#fff"/>
    </g>
    <g transform="translate(-218 -375)">
      <circle id="Ellipse_619-32" data-name="Ellipse 619" cx="2" cy="2" r="2" transform="translate(435 375)" fill="#fff"/>
    </g>
    <g transform="translate(-211 -375)">
      <circle id="Ellipse_619-33" data-name="Ellipse 619" cx="2" cy="2" r="2" transform="translate(435 375)" fill="#fff"/>
    </g>
    <g transform="translate(-204 -375)">
      <circle id="Ellipse_619-34" data-name="Ellipse 619" cx="2" cy="2" r="2" transform="translate(435 375)" fill="#fff"/>
    </g>
    <g transform="translate(-197 -375)">
      <circle id="Ellipse_619-35" data-name="Ellipse 619" cx="2" cy="2" r="2" transform="translate(435 375)" fill="#fff"/>
    </g>
    <g transform="translate(-190 -375)">
      <circle id="Ellipse_619-36" data-name="Ellipse 619" cx="2" cy="2" r="2" transform="translate(435 375)" fill="#fff"/>
    </g>
    <g transform="translate(-183 -375)">
      <circle id="Ellipse_619-37" data-name="Ellipse 619" cx="2" cy="2" r="2" transform="translate(435 375)" fill="#fff"/>
    </g>
    <g transform="translate(-176 -375)">
      <circle id="Ellipse_619-38" data-name="Ellipse 619" cx="2" cy="2" r="2" transform="translate(435 375)" fill="#fff"/>
    </g>
    <g transform="translate(-169 -375)">
      <circle id="Ellipse_619-39" data-name="Ellipse 619" cx="2" cy="2" r="2" transform="translate(435 375)" fill="#fff"/>
    </g>
    <g transform="translate(-162 -375)">
      <circle id="Ellipse_619-40" data-name="Ellipse 619" cx="2" cy="2" r="2" transform="translate(435 375)" fill="#fff"/>
    </g>
    <g transform="translate(-155 -375)">
      <circle id="Ellipse_619-41" data-name="Ellipse 619" cx="2" cy="2" r="2" transform="translate(435 375)" fill="#fff"/>
    </g>
    <g transform="translate(-148 -375)">
      <circle id="Ellipse_619-42" data-name="Ellipse 619" cx="2" cy="2" r="2" transform="translate(435 375)" fill="#fff"/>
    </g>
    <g transform="translate(-141 -375)">
      <circle id="Ellipse_619-43" data-name="Ellipse 619" cx="2" cy="2" r="2" transform="translate(435 375)" fill="#fff"/>
    </g>
    <g transform="translate(-134 -375)">
      <circle id="Ellipse_619-44" data-name="Ellipse 619" cx="2" cy="2" r="2" transform="translate(435 375)" fill="#fff"/>
    </g>
    <g transform="translate(-127 -375)">
      <circle id="Ellipse_619-45" data-name="Ellipse 619" cx="2" cy="2" r="2" transform="translate(435 375)" fill="#fff"/>
    </g>
    <g transform="translate(-120 -375)">
      <circle id="Ellipse_619-46" data-name="Ellipse 619" cx="2" cy="2" r="2" transform="translate(435 375)" fill="#fff"/>
    </g>
    <g transform="translate(-113 -375)">
      <circle id="Ellipse_619-47" data-name="Ellipse 619" cx="2" cy="2" r="2" transform="translate(435 375)" fill="#fff"/>
    </g>
    <g transform="translate(-106 -375)">
      <circle id="Ellipse_619-48" data-name="Ellipse 619" cx="2" cy="2" r="2" transform="translate(435 375)" fill="#fff"/>
    </g>
    <g transform="translate(-99 -375)">
      <circle id="Ellipse_619-49" data-name="Ellipse 619" cx="2" cy="2" r="2" transform="translate(435 375)" fill="#fff"/>
    </g>
    <g transform="translate(-92 -375)">
      <circle id="Ellipse_619-50" data-name="Ellipse 619" cx="2" cy="2" r="2" transform="translate(435 375)" fill="#fff"/>
    </g>
    <g transform="translate(-85 -375)">
      <circle id="Ellipse_619-51" data-name="Ellipse 619" cx="2" cy="2" r="2" transform="translate(435 375)" fill="#fff"/>
    </g>
    <g transform="translate(-78 -375)">
      <circle id="Ellipse_619-52" data-name="Ellipse 619" cx="2" cy="2" r="2" transform="translate(435 375)" fill="#fff"/>
    </g>
    <g transform="translate(-71 -375)">
      <circle id="Ellipse_619-53" data-name="Ellipse 619" cx="2" cy="2" r="2" transform="translate(435 375)" fill="#fff"/>
    </g>
    <g transform="translate(-64 -375)">
      <circle id="Ellipse_619-54" data-name="Ellipse 619" cx="2" cy="2" r="2" transform="translate(435 375)" fill="#fff"/>
    </g>
    <g transform="translate(-57 -375)">
      <circle id="Ellipse_619-55" data-name="Ellipse 619" cx="2" cy="2" r="2" transform="translate(435 375)" fill="#fff"/>
    </g>
    <g transform="translate(-50 -375)">
      <circle id="Ellipse_619-56" data-name="Ellipse 619" cx="2" cy="2" r="2" transform="translate(435 375)" fill="#fff"/>
    </g>
    <g transform="translate(-43 -375)">
      <circle id="Ellipse_619-57" data-name="Ellipse 619" cx="2" cy="2" r="2" transform="translate(435 375)" fill="#fff"/>
    </g>
    <g transform="translate(-36 -375)">
      <circle id="Ellipse_619-58" data-name="Ellipse 619" cx="2" cy="2" r="2" transform="translate(435 375)" fill="#fff"/>
    </g>
    <g transform="translate(-29 -375)">
      <circle id="Ellipse_619-59" data-name="Ellipse 619" cx="2" cy="2" r="2" transform="translate(435 375)" fill="#fff"/>
    </g>
    <g transform="translate(-22 -375)">
      <circle id="Ellipse_619-60" data-name="Ellipse 619" cx="2" cy="2" r="2" transform="translate(435 375)" fill="#fff"/>
    </g>
    <g transform="translate(-15 -375)">
      <circle id="Ellipse_619-61" data-name="Ellipse 619" cx="2" cy="2" r="2" transform="translate(435 375)" fill="#fff"/>
    </g>
    <g transform="translate(-8 -375)">
      <circle id="Ellipse_619-62" data-name="Ellipse 619" cx="2" cy="2" r="2" transform="translate(435 375)" fill="#fff"/>
    </g>
    <g transform="translate(-1 -375)">
      <circle id="Ellipse_619-63" data-name="Ellipse 619" cx="2" cy="2" r="2" transform="translate(435 375)" fill="#fff"/>
    </g>
    <g transform="translate(6 -375)">
      <circle id="Ellipse_619-64" data-name="Ellipse 619" cx="2" cy="2" r="2" transform="translate(435 375)" fill="#fff"/>
    </g>
    <g transform="translate(13 -375)">
      <circle id="Ellipse_619-65" data-name="Ellipse 619" cx="2" cy="2" r="2" transform="translate(435 375)" fill="#fff"/>
    </g>
    <g transform="translate(20 -375)">
      <circle id="Ellipse_619-66" data-name="Ellipse 619" cx="2" cy="2" r="2" transform="translate(435 375)" fill="#fff"/>
    </g>
    <g transform="translate(27 -375)">
      <circle id="Ellipse_619-67" data-name="Ellipse 619" cx="2" cy="2" r="2" transform="translate(435 375)" fill="#fff"/>
    </g>
    <g transform="translate(34 -375)">
      <circle id="Ellipse_619-68" data-name="Ellipse 619" cx="2" cy="2" r="2" transform="translate(435 375)" fill="#fff"/>
    </g>
    <g transform="translate(41 -375)">
      <circle id="Ellipse_619-69" data-name="Ellipse 619" cx="2" cy="2" r="2" transform="translate(435 375)" fill="#fff"/>
    </g>
    <g transform="translate(48 -375)">
      <circle id="Ellipse_619-70" data-name="Ellipse 619" cx="2" cy="2" r="2" transform="translate(435 375)" fill="#fff"/>
    </g>
  </g>
</svg>
