<svg xmlns="http://www.w3.org/2000/svg" width="98.685" height="98.686" viewBox="0 0 98.685 98.686">
  <g id="icon" transform="translate(-7.594 -959.956)">
    <path id="Path_5010" data-name="Path 5010" d="M56.937,959.956a49.343,49.343,0,1,0,49.343,49.343,49.358,49.358,0,0,0-49.343-49.343ZM42.319,984.1a1.171,1.171,0,1,1,0,2.327,6.23,6.23,0,0,0-6.254,6.254,1.164,1.164,0,0,1-2.327,0A8.594,8.594,0,0,1,42.319,984.1Zm29.235,0a8.623,8.623,0,0,1,8.618,8.581c0,1.367-2.327,1.723-2.327,0a6.262,6.262,0,0,0-6.291-6.254,1.164,1.164,0,1,1,0-2.327Zm-28.435,7.381a2.708,2.708,0,0,1,2.291,1.6,6.631,6.631,0,0,1,0,5.745,2.672,2.672,0,0,1-2.291,1.563,2.616,2.616,0,0,1-2.254-1.563,6.631,6.631,0,0,1,0-5.745A2.651,2.651,0,0,1,43.119,991.482Zm27.6,0a2.7,2.7,0,0,1,2.291,1.6,6.983,6.983,0,0,1,0,5.745,2.67,2.67,0,0,1-2.291,1.563,2.621,2.621,0,0,1-2.254-1.563,6.631,6.631,0,0,1,0-5.745,2.656,2.656,0,0,1,2.254-1.6Zm-13.781,20.944c4.9,0,9.127,5.148,9.127,11.854s-4.232,11.854-9.127,11.854-9.127-5.16-9.127-11.854S52.041,1012.426,56.937,1012.426Z" transform="translate(0 0)" fill="red" fill-rule="evenodd"/>
  </g>
</svg>
