<svg xmlns="http://www.w3.org/2000/svg" width="28.39" height="28.39" viewBox="0 0 28.39 28.39"><path d="M189.36,304.839v-1.324a5.845,5.845,0,1,0-5.845,5.845h13.36a7.515,7.515,0,1,1-7.515,7.515v-2.924a.421.421,0,0,1,.421-.416h.827a.416.416,0,0,1,.421.416v2.924a5.845,5.845,0,1,0,5.845-5.845h-13.36a7.515,7.515,0,1,1,7.515-7.515v1.324l1.2-1.2a.419.419,0,0,1,.594,0l.585.584a.418.418,0,0,1,0,.595l-2.626,2.626a.835.835,0,0,1-1.181,0l-2.626-2.626a.421.421,0,0,1,0-.595l.585-.584a.418.418,0,0,1,.594,0Z" transform="translate(-176 -296)"/></svg>