<svg id="noun_Save_Money_2280701" data-name="noun_Save Money_2280701" xmlns="http://www.w3.org/2000/svg" width="35.41" height="34.519" viewBox="0 0 35.41 34.519">
  <path id="Path_4844" data-name="Path 4844" d="M38.964,37.051a.678.678,0,0,0-.889-.36,2.191,2.191,0,0,1-1.226.115,3.865,3.865,0,0,0,.034-3.758A2.356,2.356,0,0,0,34.7,31.871,2.157,2.157,0,0,0,32.9,33.4a3.269,3.269,0,0,0,1.149,3.387,5.475,5.475,0,0,0,.9.69,1.988,1.988,0,0,1-1.1.766,2.244,2.244,0,0,1-1.762-.548h0a10.225,10.225,0,0,0-3.574-5.486.678.678,0,1,0-.858,1.046,8.569,8.569,0,0,1,3.31,6.578A8.746,8.746,0,0,1,26.9,46.958a.67.67,0,0,0-.28.69l.831,4.168h-3.7a.291.291,0,0,1-.245-.169l-.467-2.234a.674.674,0,0,0-.8-.521,17.378,17.378,0,0,1-6.21,0,.674.674,0,0,0-.8.521l-.467,2.2a.291.291,0,0,1-.245.169h-3.7l.828-3.85a.682.682,0,0,0-.464-.793,5.3,5.3,0,0,1-3.295-3.172.674.674,0,0,0-.624-.421H5.426a2.517,2.517,0,0,1-.46-.027V39.238c0-.552.287-.552.429-.552H6.824a.678.678,0,0,0,.663-.529A8.429,8.429,0,0,1,9.43,34.419a.686.686,0,0,0,.169-.5A7.771,7.771,0,0,0,8.2,30.193l-.169-.28a7.415,7.415,0,0,1,5.118,1.372.678.678,0,0,0,.682.111,13.436,13.436,0,0,1,2.655-.7.678.678,0,1,0-.222-1.337,15.325,15.325,0,0,0-2.548.651c-1.253-.9-3.387-1.759-6.9-1.349a.682.682,0,0,0-.521.992c.245.467.49.866.728,1.257A6.78,6.78,0,0,1,8.2,33.764a9.693,9.693,0,0,0-1.916,3.578H5.4a1.747,1.747,0,0,0-1.785,1.9v4.253c0,1.441,1.364,1.441,1.816,1.441h1.4a6.632,6.632,0,0,0,3.364,3.333l-.732,3.4A1.234,1.234,0,0,0,9.7,52.7a1.352,1.352,0,0,0,1.057.483h0l3.755-.023a1.609,1.609,0,0,0,1.563-1.237l.326-1.575a19.275,19.275,0,0,0,5.421,0l.329,1.563a1.621,1.621,0,0,0,1.567,1.237l3.751.023h0a1.345,1.345,0,0,0,1.05-.475,1.241,1.241,0,0,0,.253-1.031l-.766-3.854a9.943,9.943,0,0,0,4.306-7.976V39.4a3.034,3.034,0,0,0,1.816.188,3.4,3.4,0,0,0,2.076-1.532,3.567,3.567,0,0,0,2.4-.107A.682.682,0,0,0,38.964,37.051Zm-3.375-.766a4.233,4.233,0,0,1-.613-.479,2.024,2.024,0,0,1-.8-1.939c.149-.41.383-.632.647-.659h.057a1.054,1.054,0,0,1,.831.517,2.61,2.61,0,0,1-.126,2.571Z" transform="translate(-3.61 -18.665)"/>
  <path id="Path_4845" data-name="Path 4845" d="M46.211,15.482A6.371,6.371,0,1,0,39.84,9.107,6.371,6.371,0,0,0,46.211,15.482Zm0-11.386A5.015,5.015,0,1,1,41.2,9.107,5.015,5.015,0,0,1,46.211,4.1Z" transform="translate(-25.96 -2.74)"/>
</svg>
