<svg xmlns="http://www.w3.org/2000/svg" width="28.961" height="31.856" viewBox="0 0 28.961 31.856"><path d="M48.961,997.7a.724.724,0,0,0-.734-.713H44.552a4.338,4.338,0,0,0-8.557,0H20.735a.724.724,0,1,0,0,1.448h15.26a4.338,4.338,0,0,0,8.557,0h3.675A.724.724,0,0,0,48.961,997.7Zm-5.792.011a2.9,2.9,0,1,1-2.9-2.9A2.885,2.885,0,0,1,43.169,997.707Z" transform="translate(-20 -981.779)"/><path d="M48.96,1021.7a.724.724,0,0,0-.734-.713H38.759a4.338,4.338,0,0,0-8.557,0H20.733a.724.724,0,1,0,0,1.448H30.2a4.338,4.338,0,0,0,8.557,0h9.467A.724.724,0,0,0,48.96,1021.7Zm-11.584.011a2.9,2.9,0,1,1-2.9-2.9A2.885,2.885,0,0,1,37.376,1021.707Z" transform="translate(-19.999 -994.195)"/><path d="M48.961,973.7a.724.724,0,0,0-.734-.713H32a4.338,4.338,0,0,0-8.557,0h-2.71a.724.724,0,1,0,0,1.448h2.71a4.338,4.338,0,0,0,8.557,0H48.226A.724.724,0,0,0,48.961,973.7Zm-18.341.011a2.9,2.9,0,1,1-2.9-2.9A2.885,2.885,0,0,1,30.62,973.706Z" transform="translate(-20 -969.362)"/></svg>