<svg xmlns="http://www.w3.org/2000/svg" width="74.8" height="65.325" viewBox="0 0 74.8 65.325">
  <path id="icon" d="M59.312,46.7a19.414,19.414,0,0,1-6.3.63C51.755,57.405,44.2,66.851,33.493,68.741c-13.854,3.149-27.709-6.3-30.857-20.152S8.3,20.88,22.787,17.732c4.408-.63,8.187-.63,11.965.63A21.947,21.947,0,0,1,50.5,4.507c11.335-2.519,23.3,5.038,25.819,17C78.834,32.845,71.277,44.181,59.312,46.7ZM55.534,10.8A15.324,15.324,0,0,0,40.42,25.918v2.519a19.882,19.882,0,0,0-11.965-4.408A19.522,19.522,0,1,0,47.977,43.551a13.866,13.866,0,0,0-.63-5.038c2.519,1.259,5.038,2.519,8.187,2.519A15.324,15.324,0,0,0,70.647,25.918,15.324,15.324,0,0,0,55.534,10.8ZM44.828,44.181A16.259,16.259,0,0,1,28.455,60.554V44.181Z" transform="translate(-1.999 -4.023)" opacity="0.3"/>
</svg>
