<svg id="visa-pay-logo" xmlns="http://www.w3.org/2000/svg" width="24.002" height="7.389" viewBox="0 0 24.002 7.389">
  <g id="Group_1089" data-name="Group 1089" transform="translate(8.391 0.123)">
    <g id="Group_1088" data-name="Group 1088">
      <path id="Path_4983" data-name="Path 4983" d="M17.942,16.8l-1.22,7.158h1.951L19.894,16.8Z" transform="translate(-16.722 -16.799)"/>
    </g>
  </g>
  <g id="Group_1091" data-name="Group 1091" transform="translate(1.938 0.129)">
    <g id="Group_1090" data-name="Group 1090">
      <path id="Path_4984" data-name="Path 4984" d="M8.679,16.814,6.768,21.7l-.2-.737a7.659,7.659,0,0,0-2.7-2.968l1.747,5.97,2.064,0,3.072-7.145Z" transform="translate(-3.862 -16.812)"/>
    </g>
  </g>
  <g id="Group_1093" data-name="Group 1093" transform="translate(0 0.062)">
    <g id="Group_1092" data-name="Group 1092">
      <path id="Path_4985" data-name="Path 4985" d="M3.9,17.259a.785.785,0,0,0-.85-.582H.025L0,16.82a6.212,6.212,0,0,1,4.558,3.6Z" transform="translate(0 -16.677)"/>
    </g>
  </g>
  <g id="Group_1095" data-name="Group 1095" transform="translate(11.563 0)">
    <g id="Group_1094" data-name="Group 1094">
      <path id="Path_4986" data-name="Path 4986" d="M27,18.049a3.6,3.6,0,0,1,1.46.274l.176.083.264-1.552a5.036,5.036,0,0,0-1.748-.3c-1.928,0-3.287.971-3.3,2.362-.013,1.028.968,1.6,1.709,1.945.76.351,1.015.575,1.012.888-.006.479-.606.7-1.167.7a4.1,4.1,0,0,1-1.837-.375l-.251-.114-.274,1.6a6.179,6.179,0,0,0,2.174.381c2.051,0,3.384-.959,3.4-2.446.009-.813-.512-1.434-1.639-1.943-.682-.332-1.1-.553-1.1-.888C25.879,18.367,26.233,18.049,27,18.049Z" transform="translate(-23.043 -16.554)"/>
    </g>
  </g>
  <g id="Group_1097" data-name="Group 1097" transform="translate(16.997 0.131)">
    <g id="Group_1096" data-name="Group 1096">
      <path id="Path_4987" data-name="Path 4987" d="M39.3,16.815H37.793a.971.971,0,0,0-1.022.594l-2.9,6.56h2.049s.334-.882.41-1.075l2.5,0c.058.25.238,1.072.238,1.072h1.81Zm-2.406,4.614c.161-.411.777-2,.777-2-.011.02.159-.414.26-.683l.131.617.452,2.067Z" transform="translate(-33.874 -16.815)"/>
    </g>
  </g>
</svg>
